<svg xmlns="http://www.w3.org/2000/svg" version="1.1" xmlns:xlink="http://www.w3.org/1999/xlink" width="2000" height="126" viewBox="0 0 2000 126"><svg xml:space="preserve" width="2000" height="126" data-version="2" data-id="lg_Hm1XPrksC0ikDvYMKd" viewBox="0 0 683 126" x="0" y="0"><rect width="100%" height="100%" fill="transparent"></rect><path fill="#5771ff" d="M68.142 120.8V1.08h26.24V120.8Zm22.96 0V98.5h52.31v22.3Zm0-49.69V48.8h48.54v22.31Zm0-47.73V1.08h51.16v22.3Z" paint-order="stroke"></path><rect width="75.27" height="119.72" x="-37.63" y="-59.86" fill="none" rx="0" ry="0" transform="translate(106.28 61.44)"></rect><path fill="#5771ff" d="M165.222 120.8V1.08h26.41V120.8Zm-10.66-100.37V1.08h37.07v19.35Z" paint-order="stroke"></path><rect width="37.07" height="119.72" x="-18.54" y="-59.86" fill="none" rx="0" ry="0" transform="translate(173.6 61.44)"></rect><path fill="#5771ff" d="M270.022 120.8V94.23h-4.43V65.37q0-6.89-3.28-10.33-3.28-3.45-10.49-3.45-3.61 0-9.52.17-5.9.16-12.13.49-6.23.33-11.32.65V30.76q3.77-.32 8.86-.65 5.08-.33 10.49-.49 5.42-.17 10.17-.17 13.78 0 23.21 3.94 9.43 3.93 14.35 11.89 4.92 7.95 4.92 20.42v55.1Zm-28.7 2.3q-9.68 0-16.97-3.45-7.3-3.44-11.4-9.92-4.1-6.48-4.1-15.5 0-9.84 5.08-16.15 5.09-6.32 14.27-9.35 9.18-3.03 21.16-3.03h19.18v14.59h-19.35q-6.89 0-10.58 3.36-3.69 3.37-3.69 9.11 0 5.41 3.69 8.77 3.69 3.36 10.58 3.36 4.43 0 7.96-1.56 3.52-1.55 5.82-5.33 2.29-3.77 2.62-10.49l6.23 6.56q-.82 9.35-4.51 15.74-3.69 6.4-10.16 9.84-6.48 3.45-15.83 3.45" paint-order="stroke"></path><rect width="82" height="93.65" x="-41" y="-46.83" fill="none" rx="0" ry="0" transform="translate(250.35 76.78)"></rect><path fill="#5771ff" d="M313.152 120.8V30.93h20.83v38.54h-1.48q0-13.78 3.53-22.96 3.53-9.19 10.74-13.78 7.22-4.59 17.55-4.59h1.15q15.74 0 24.02 10.25 8.29 10.25 8.29 31.08v51.33h-26.24V67.99q0-7.21-4.27-11.81-4.26-4.59-11.48-4.59-7.38 0-11.89 4.68-4.51 4.67-4.51 12.21v52.32Z" paint-order="stroke"></path><rect width="84.63" height="92.66" x="-42.31" y="-46.33" fill="none" rx="0" ry="0" transform="translate(355.97 74.97)"></rect><path fill="#5771ff" d="M463.872 123.92q-11.81 0-20.99-3.69-9.19-3.69-15.5-10.09-6.32-6.4-9.6-14.68-3.28-8.28-3.28-17.46v-3.78q0-9.34 3.37-17.79 3.36-8.45 9.84-14.84 6.47-6.4 15.66-10.09 9.18-3.69 20.5-3.69 11.64 0 20.74 3.69 9.11 3.69 15.5 10.09 6.4 6.39 9.84 14.84 3.45 8.45 3.45 17.79V78q0 9.18-3.28 17.46-3.28 8.28-9.6 14.68-6.31 6.4-15.5 10.09-9.18 3.69-21.15 3.69m0-22.14q7.71 0 12.79-3.28 5.08-3.28 7.79-9.19 2.71-5.9 2.71-13.12 0-7.71-2.79-13.53-2.79-5.82-7.96-9.26-5.16-3.45-12.54-3.45-7.22 0-12.47 3.45-5.24 3.44-7.95 9.26t-2.71 13.53q0 7.22 2.63 13.12 2.62 5.91 7.87 9.19 5.25 3.28 12.63 3.28" paint-order="stroke"></path><rect width="98.9" height="96.11" x="-49.45" y="-48.05" fill="none" rx="0" ry="0" transform="translate(464.45 76.36)"></rect><path fill="#5771ff" d="M531.762 120.8V30.93h20.83v38.54h-.49q0-19.03 8.12-29.36 8.12-10.33 23.53-10.33h3.45v22.63h-6.56q-10.83 0-16.73 5.82-5.91 5.83-5.91 16.81v45.76Z" paint-order="stroke"></path><rect width="55.44" height="91.02" x="-27.72" y="-45.51" fill="none" rx="0" ry="0" transform="translate(559.98 75.79)"></rect><path fill="#5771ff" d="M654.602 120.8V94.23h-4.43V65.37q0-6.89-3.28-10.33-3.28-3.45-10.49-3.45-3.61 0-9.52.17-5.9.16-12.13.49-6.23.33-11.32.65V30.76q3.77-.32 8.86-.65 5.08-.33 10.49-.49 5.42-.17 10.17-.17 13.78 0 23.21 3.94 9.43 3.93 14.35 11.89 4.92 7.95 4.92 20.42v55.1Zm-28.7 2.3q-9.68 0-16.97-3.45-7.3-3.44-11.4-9.92-4.1-6.48-4.1-15.5 0-9.84 5.08-16.15 5.09-6.32 14.27-9.35 9.18-3.03 21.16-3.03h19.18v14.59h-19.35q-6.89 0-10.58 3.36-3.69 3.37-3.69 9.11 0 5.41 3.69 8.77 3.69 3.36 10.58 3.36 4.43 0 7.96-1.56 3.52-1.55 5.82-5.33 2.29-3.77 2.62-10.49l6.23 6.56q-.82 9.35-4.51 15.74-3.69 6.4-10.16 9.84-6.48 3.45-15.83 3.45" paint-order="stroke"></path><rect width="82" height="93.65" x="-41" y="-46.83" fill="none" rx="0" ry="0" transform="translate(634.93 76.78)"></rect><path fill="#5771ff" d="M43.926 67.267h-.733V50.42c0-1.319 0-2.491-1.465-3.077V8.374c0-2.637-1.611-5.127-3.955-6.153-2.491-1.025-5.274-.44-7.179 1.465L14.479 19.508c-1.318 1.319-2.051 2.93-2.051 4.688V47.05c0 .586-1.465 1.905-1.465 3.37v16.847h-.732a3.627 3.627 0 0 0-3.663 3.663v47.026c0 2.051 1.612 3.516 3.663 3.516h33.695c2.05 0 3.662-1.465 3.662-3.516V70.93a3.627 3.627 0 0 0-3.662-3.663m-9.523 0V54.082h1.465v13.185zm0-57.135v36.625h-14.65V24.489zm-16.115 43.95h11.72v13.185h-11.72zm-4.395 20.51h19.045v39.555H13.893zm23.44 39.555V74.592h2.93v39.555z"></path></svg></svg>